<?xml version="1.0" encoding="utf-8"?>
<svg version="1.1" id="Capa_1" xmlns="http://www.w3.org/2000/svg" xmlns:xlink="http://www.w3.org/1999/xlink" x="0px" y="0px"
	 viewBox="0 0 1138.8 566.7" style="enable-background:new 0 0 1138.8 566.7;" xml:space="preserve">
<style type="text/css">
	.st0{fill:#EA202E;}
</style>
<g>
	<path class="st0" d="M421.2,28.9c-0.1,1.3-0.4,2.6-0.4,3.9c0,45.8,0,91.7,0,137.5c0,1.3,0.1,2.6,0.2,4.5c48.4,0,96.6,0,145.3,0
		c0,22.2,0,43.9,0,66.1c-2.3,0-4.2,0-6.2,0c-22,0-44,0.1-66-0.1c-3.1,0-5.1,0.9-7.1,3.4c-7.7,10-21.3,11.2-30.4,3
		c-9.2-8.4-9.3-22.5-0.1-31c8.9-8.3,22.7-7.1,30.4,2.8c1.8,2.3,3.6,3.4,6.6,3.4c16.3-0.1,32.7-0.2,49,0c4,0,5.7-1,5.5-5.3
		c-0.3-5.8-0.3-11.7,0-17.5c0.3-4.5-1.2-6-5.8-5.9c-44.5,0.2-89,0.1-133.5,0.1c-6.7,0-6.7,0-6.7-6.8c0-44.2,0-88.3,0-132.5
		c0-6.7,0-6.7-6.4-6.7c-23,0-46,0.1-69-0.1c-4,0-5.5,1-5.4,5.2c0.2,36.8,0.1,73.7,0,110.5c0,3.2,1.1,5.1,3.6,6.9
		c10,7.3,11.4,21.2,3.4,30.4c-8,9.1-22.3,9.5-30.7,0.9c-8.6-8.8-7.7-22.5,1.6-30.7c1.6-1.5,3.4-3.9,3.4-5.9
		c0.2-38.2,0.2-76.3,0.2-114.5c0-0.7-0.1-1.3-0.2-2.4c-26.2,0-52.5,0-79.2,0c0,48.4,0,96.6,0,145.4c-48.8,0-97,0-145.7,0
		c0,9.8,0,18.9,0,28.4c1.8,0.1,3.4,0.3,5.1,0.3c33.7,0,67.3,0,101,0.1c3.4,0,5.7-0.9,7.9-3.7c7.8-9.8,21.5-10.5,30.5-2
		c8.8,8.3,8.6,22.3-0.5,30.7c-8.8,8.1-22.6,7.1-30.1-2.6c-2.4-3.1-4.9-3.8-8.4-3.8c-39,0.1-78,0.1-117,0.1c-2.3,0-4.6,0-7.3,0
		c0-22.1,0-43.6,0-65.8c48.3,0,96.6,0,145.5,0c0-49.1,0-97.7,0-146.3C276.5,28.9,348.8,28.9,421.2,28.9z"/>
	<path class="st0" d="M371.1,518.8c10.5,0,20.3,0,30.9,0c0-48.5,0-96.9,0-145.7c48.9,0,97,0,145.6,0c0-9.6,0-18.8,0-28.5
		c-1.8,0-3.5,0-5.1,0c-27.2,0-54.3,0-81.5-0.1c-3.2,0-5.4,0.7-7.5,3.5c-7.2,9.6-21.1,10.7-30.1,2.7c-9.1-8.1-9.3-22.2-0.6-30.7
		c8.5-8.3,22.7-7.8,30.2,1.6c2.6,3.3,5.2,4.3,9.2,4.3c32.7-0.1,65.3-0.1,98-0.1c2,0,3.9,0,6.2,0c0,22.1,0,43.7,0,65.8
		c-2.2,0-4.2,0-6.1,0c-44.3,0-88.7,0-133,0c-6.5,0-6.5,0-6.5,6.5c0,44.2,0,88.3,0,132.5c0,2.1,0,4.2,0,6.7c-23,0-45.4,0-68.4,0
		c0-2.4,0-4.5,0-6.6c0-71,0-142,0.1-213c0-4-0.6-6.9-4.2-9.7c-9.3-7.4-9.7-21.8-1.4-30.2c8.4-8.5,22.4-8.3,30.4,0.4
		c8.3,9.1,7.2,23-2.6,30.4c-2.5,1.9-3.6,3.7-3.6,6.9c0.1,66,0.1,132,0.1,198C371.1,515.3,371.1,516.7,371.1,518.8z"/>
	<path class="st0" d="M204.2,537.8c0-2.6,0-4.5,0-6.5c0-44.3,0-88.7,0-133c0-6.5,0-6.6-6.5-6.6c-44.3,0-88.7,0-133,0
		c-2,0-3.9,0-6.2,0c0-22,0-43.5,0-65.6c1.9-0.1,3.8-0.3,5.7-0.3c22.3,0,44.7-0.1,67,0c3.6,0,6-0.8,8.3-3.9
		c7.4-9.6,21.9-10.3,30.5-1.9c8.5,8.3,8.4,22.3-0.3,30.4c-8.8,8.2-23.2,7.2-30.5-2.5c-2-2.6-3.9-3.5-7-3.5
		c-16.8,0.1-33.7,0.1-50.5,0.1c-1.5,0-2.9,0.1-4.6,0.2c0,9.4,0,18.4,0,28c48.5,0,96.7,0,145.6,0c0,48.8,0,97.2,0,145.9
		c10.4,0,20.1,0,30.4,0c0.1-1.8,0.3-3.6,0.3-5.3c0-65.8,0-131.7,0.1-197.5c0-3.1-0.8-5.1-3.4-7.1c-9.8-7.7-10.8-21.4-2.6-30.5
		c7.9-8.7,21.9-8.9,30.3-0.3c8.6,8.7,8,22.6-1.8,30.4c-3.2,2.6-4,5.1-4,8.9c0.1,71.2,0.1,142.3,0.1,213.5c0,6.9,0,6.9-7.1,6.9
		c-18.3,0-36.7,0-55,0C208.4,537.8,206.7,537.8,204.2,537.8z"/>
	<path class="st0" d="M322.1,537.4c-6.4,0-12.2,0-18.7,0c0-2,0-3.9,0-5.8c0-36.3,0-72.6,0-108.9c0-3-0.7-5-3.4-7
		c-9.9-7.1-11.2-21.2-3.2-30.4c7.8-9,22.3-9.4,30.7-0.8c8.5,8.7,7.9,23-1.7,30.5c-3.1,2.4-3.7,4.9-3.7,8.4c0.1,35.6,0,71.3,0,106.9
		C322.1,532.5,322.1,534.6,322.1,537.4z"/>
	<path d="M689.5,217.4c22.9-13.5,34.6-12,50,6.1c5.7-8.2,13.2-13.8,23.4-14.9c17.8-1.8,33.3,10.8,34,28.7c0.6,13.8,0.3,27.7,0,41.5
		c0,1.7-2.1,4.5-3.5,4.8c-3.3,0.6-3.8-2.3-3.8-5c0-12.7,0.1-25.3,0-38c-0.1-10.4-4.5-18.4-14.2-22.7c-15-6.6-31.8,4.5-32,21.1
		c-0.2,12,0,24,0,36c0,1.2,0,2.3,0,3.5c0.1,2.8-0.6,5.2-3.9,5.3c-3.5,0.1-3.9-2.4-3.9-5.1c0-12.5-0.1-25,0-37.5
		c0.1-9.6-3.4-17.3-11.9-22.1c-15.3-8.7-34.1,2.2-34.4,19.9c-0.2,12.7,0,25.3-0.1,38c0,1.5,0.3,3.2-0.3,4.4
		c-0.5,1.1-2.2,2.5-3.2,2.4c-1.3-0.1-2.6-1.5-3.6-2.6c-0.4-0.5-0.2-1.6-0.2-2.4c0-21.7,0-43.3,0-65c0-0.7-0.2-1.6,0.1-2
		c1.1-1.2,2.4-2.8,3.7-3c1-0.1,2.8,1.6,3.3,2.8C689.7,213.3,689.4,215.3,689.5,217.4z"/>
	<path class="st0" d="M58.4,292.3c0-6.1,0-11.8,0-18c1.7-0.1,3.3-0.2,4.9-0.2c36,0,71.9,0,107.9-0.1c3.9,0,5.4,1.1,5.1,5
		c-0.3,4.3-0.1,8.6-0.1,13.3C136.8,292.3,97.8,292.3,58.4,292.3z"/>
	<path d="M840.2,384.2c0,13.8,0,26.8,0,39.8c0,2.9-0.2,5.7-3.8,5.7c-3.7,0-3.8-3-3.8-5.8c0-31.8,0-63.6,0-95.4
		c0-2.9,0.2-5.7,3.9-5.6c3.3,0.1,3.7,2.7,3.6,5.4c-0.1,2.4,0,4.8,0,7.6c21.6-17.2,41.5-17.3,55.9-0.7c13.2,15.2,12.1,38.5-2.4,52.5
		C878.7,402.2,857.9,401.1,840.2,384.2z M897.3,360.5c0-16.8-12.2-29.7-28.3-29.8c-15.8-0.1-28.9,13.2-28.8,29.5
		c0,16.2,13.1,30,28.6,30.1C884.3,390.4,897.3,376.9,897.3,360.5z"/>
	<path d="M657.6,340.3c0-14.1,0-27.7,0-41.3c0-1.7-0.4-3.5,0.2-4.9c0.6-1.4,2.4-3.1,3.6-3.1c1.3,0,2.8,1.8,3.7,3.1
		c0.6,1,0.2,2.6,0.2,3.9c0,31,0,62,0,92.9c0,1,0.3,2.2-0.1,2.9c-1,1.6-2.5,2.9-3.8,4.4c-1.3-1.4-3.5-2.8-3.6-4.3
		c-0.5-5.1-0.2-10.3-0.2-15.5c0-9.9,0-19.9,0-30.1c-18.5,0-36.4,0-54.9,0c0,4.9,0,9.6,0,14.2c0,10.2,0,20.3,0,30.5
		c0,2.7-0.8,5.2-4.1,5.2c-3.3-0.1-3.7-2.6-3.7-5.3c0-32.3,0-64.6,0-96.9c0-2.7,0.2-5.2,3.8-5.2c3.5,0,3.8,2.7,3.9,5.3
		c0.1,1.2,0,2.3,0,3.5c0,11.7,0,23.3,0,35c0,1.8,0,3.6,0,5.8C621,340.3,638.9,340.3,657.6,340.3z"/>
	<path class="st0" d="M460.6,292.5c0-6.2,0-11.9,0-18.2c1.8-0.1,3.5-0.2,5.3-0.2c31.8,0,63.6,0.1,95.3-0.1c4.4,0,5.9,1.1,5.6,5.6
		c-0.4,4.2-0.1,8.5-0.1,13C531.1,292.5,496.2,292.5,460.6,292.5z"/>
	<path d="M629.7,174.7c12.4-0.2,22.9,5.2,32.7,12.1c1.2,0.8,1,3.6,1.5,5.4c-1.8,0.1-3.9,0.9-5.3,0.2c-5.2-2.5-10-6.1-15.4-8.1
		c-12.6-4.8-25-3.6-36,4.5c-10.8,8-10.2,21,1.7,27.2c6.9,3.7,15,5.1,22.5,7.7c9,3.2,18.7,5.3,26.9,10.1c14.6,8.5,16.1,26.1,3.9,37.8
		c-13.1,12.6-29.2,15.1-46,10c-8.6-2.6-16.4-7.8-24.3-12.3c-1.3-0.7-2.4-4.2-1.7-5.6c1.4-2.9,3.8-1.5,5.8,0
		c8.6,6.6,18.1,11.3,28.9,12.7c10.6,1.3,20.6-0.7,29.3-7.2c12.3-9.2,11.6-23.7-1.9-30.7c-6.8-3.6-14.6-5.2-22-7.6
		c-7.9-2.6-16.3-4-23.6-7.7c-18.2-9.2-19-29.9-2-41.3C612.2,176.7,620.7,174.7,629.7,174.7z"/>
	<path d="M1044,384.5c-19.4,20.4-41.9,14.7-52.9,3.5c-13.9-14-14.8-37.9-1.9-52.8c7.1-8.2,16.2-12.6,27.2-12.4
		c8.4,0.1,11.2,1.4,27.5,13.1c0-3.1-0.4-6,0.2-8.6c0.4-1.7,2.2-3,3.4-4.5c1.3,1.4,3.3,2.7,3.6,4.3c0.6,3.1,0.2,6.3,0.2,9.5
		c0,18,0,36,0,53.9c0,1.5,0.3,3.2-0.2,4.4c-0.6,1.3-2.3,3-3.3,2.9c-1.4-0.2-3.4-1.7-3.6-3C1043.7,391.9,1044,388.8,1044,384.5z
		 M987.7,360.3c-0.1,16.7,12.5,30.4,27.9,30.5c15.4,0,28.3-13.8,28.3-30.3c0-16.5-12.8-30.1-28.3-30.1
		C1000.4,330.4,987.8,343.9,987.7,360.3z"/>
	<path d="M870,221.5c0-3.2-0.5-5.8,0.2-8.1c0.5-1.8,2.2-4.4,3.7-4.6c2.9-0.5,3.6,2.1,3.6,4.7c0,15,0,30,0,44.9c0,6.5,0,13,0,19.5
		c0,2.7,0.3,5.9-3.5,5.9c-4,0-3.9-3.3-3.9-6.2c0-2.1,0-4.2,0-7.5c-9.3,10.1-19.7,15.2-32.5,13.6c-8.9-1.1-16.4-5.3-22.2-12.2
		c-12.5-15-12-37.8,1.2-51.6C830.9,204.5,848.2,204.9,870,221.5z M870,246.3c0-16.6-12.7-30.4-28-30.5c-15.4,0-28.2,13.8-28.2,30.3
		c-0.1,16.3,12.6,29.9,27.8,30.1C857.1,276.5,869.9,263,870,246.3z"/>
	<path d="M756.2,360.8c0,20.8-15.7,37.3-35.5,37.4c-20.1,0-35.7-16.5-35.7-37.6c0-21.1,15.8-37.7,35.7-37.7
		C740.5,322.9,756.2,339.7,756.2,360.8z M720.4,330.4c-15.5,0.1-28.3,14-28.2,30.4c0.1,16.4,13.5,30.3,28.7,30
		c15.1-0.3,28-14.2,28-30.3C748.8,344.1,735.8,330.3,720.4,330.4z"/>
	<path d="M793.3,398.1c-9.9-0.1-18.6-3.6-26.1-9.7c-1.3-1-1.2-3.8-1.7-5.8c2.1,0,4.6-0.9,6.1,0.1c8.6,5.5,17.4,9.9,28.1,7.4
		c7.9-1.9,13.7-7.1,13.9-12.5c0.2-5.4-4.5-10.5-12.7-12.9c-4.9-1.5-10.1-2.2-15-3.6c-3.3-0.9-6.7-2-9.7-3.7
		c-12.3-7.2-12.5-22.7-0.1-29.9c13.1-7.6,27.4-5.5,39.7,3.8c1.1,0.9,0.8,3.7,1.1,5.6c-1.8,0.2-3.9,1.1-5.4,0.5
		c-3.5-1.4-6.6-4-10.1-5.4c-8.4-3.3-16.5-2.4-23.2,3.9c-5.3,4.9-4.8,11.7,1.6,14.9c5.1,2.6,11,3.5,16.5,5.3c4.9,1.6,10,2.7,14.6,4.9
		c12,5.8,14,20.3,4.4,29.5C809.6,395.6,802.3,398.2,793.3,398.1z"/>
	<path d="M954.6,215.9c-3.6,0-6.5,0.4-9.2-0.2c-1.4-0.3-3.5-2.2-3.5-3.4c0-1.3,1.9-3.4,3.2-3.7c2.8-0.6,5.9-0.2,9.5-0.2
		c0-7.6,0-14.6,0-21.5c0-1.7,0-3.3,0-5c0-2.8,1-5.6,4-4.9c1.6,0.4,3.7,3.3,3.8,5.1c0.5,6.6,0.2,13.3,0.2,20c0,1.8,0,3.6,0,6.2
		c3.1,0,5.8-0.5,8.2,0.2c1.9,0.5,3.4,2.4,5,3.7c-1.6,1.2-3.1,3.1-5,3.6c-2.3,0.6-4.9,0.1-7.9,0.1c-0.1,1.8-0.3,3.4-0.3,5
		c0,15.7,0.1,31.3-0.1,47c0,4.3,0.9,7.3,5.7,8.5c1.4,0.3,2.3,3,3.5,4.6c-1.7,1-3.4,2.8-5.2,2.8c-6.9,0.1-12-5.7-12.1-13.8
		c-0.1-12,0-24,0-36C954.6,228.1,954.6,222.3,954.6,215.9z"/>
	<path d="M958.2,330.3c0,18.6-0.2,36.5,0.2,54.5c0,2,3.4,3.8,5.1,5.8c1.3,1.5,2.5,3.2,3.8,4.8c-1.9,0.9-3.8,2.7-5.5,2.6
		c-7.2-0.4-11.5-5.7-11.6-13.7c-0.1-16,0-32,0-48c0-1.8,0-3.6,0-5.9c-2.9,0-5.4,0.1-7.8,0c-2.5-0.1-5.2,0-5.2-3.7
		c0-3.7,2.3-3.9,5.1-3.8c2.5,0.1,4.9,0,8,0c0-9.2,0-17.9,0-26.7c0-2.9,1.2-5.4,4.2-4.8c1.5,0.3,2.8,2.9,3.8,4.8
		c0.5,1.1,0.1,2.6,0.1,3.9c0,7.4,0,14.9,0,22.8c3.3,0,6.2-0.4,8.8,0.2c1.6,0.4,2.9,2.3,4.3,3.6c-1.3,1.2-2.4,3.2-3.9,3.5
		C964.6,330.7,961.5,330.3,958.2,330.3z"/>
	<path d="M903.2,226.2c4.8-4.3,8.8-9.2,13.9-12.3c4.7-2.8,10.4-3.9,15.9-5c1.4-0.3,3.4,2.1,5,3.3c-1.4,1.3-2.7,3.4-4.3,3.7
		c-16.7,3-30.5,19.3-30.5,36.2c0,8.8,0,17.6,0,26.5c0,2.7-0.5,5.2-3.8,5.2c-3.4,0-3.7-2.7-3.7-5.3c0-21.5,0-42.9,0-64.4
		c0-2.7,0.3-5.3,3.8-5.3c3.4,0,3.8,2.5,3.8,5.3C903.1,218.1,903.2,222.2,903.2,226.2z"/>
	<path d="M1072.6,344.4c0-15.5,0-31,0-46.5c0-1.5-0.3-3.2,0.4-4.4c0.7-1.2,2.4-2.6,3.6-2.5c1.2,0,2.7,1.5,3.5,2.7
		c0.6,1,0.3,2.6,0.3,3.9c0,31.3,0,62.6,0,94c0,1.3,0.3,2.9-0.3,3.9c-0.6,1.2-2.1,2.6-3.1,2.6c-1.3,0-3.1-1.1-3.8-2.3
		c-0.7-1.3-0.5-3.2-0.5-4.9C1072.6,375.4,1072.6,359.9,1072.6,344.4z"/>
	<path d="M923.3,361c0,10.6,0,21.3,0,31.9c0,2.7-0.4,5.2-3.7,5.3c-3.3,0.1-4-2.5-4-5.2c0-21.8-0.1-43.5,0.2-65.3
		c0-1.6,2.2-4.3,3.7-4.6c3.3-0.6,3.8,2.2,3.8,5C923.3,339,923.4,350,923.3,361z"/>
	<path d="M618.7,437.4c0.5,8.4,5.2,14.1,12,15.5c7.6,1.5,12.9-2.4,17.4-8.4c0.4,0.4,0.9,0.8,1.3,1.2c-0.6,1.4-0.9,3.1-1.8,4.2
		c-5,6.3-14.4,8.2-21.7,4.5c-8.2-4.1-12.3-13.5-9.9-22.3c2.5-9.2,9.8-14.6,19.1-14.1c8.1,0.4,15.4,6.8,16.9,14.6
		c0.6,3.3-0.2,5-4,4.9C638.3,437.3,628.7,437.4,618.7,437.4z M648.3,433.8c-1.2-8-7.5-13.3-14.9-13.1c-7.3,0.3-13.3,5.7-14.1,13.1
		C628.9,433.8,638.4,433.8,648.3,433.8z"/>
	<path d="M698.3,455.7c0-18.1-0.1-36.2,0-54.4c0.9,0,1.8,0,2.6-0.1c0,6.9,0,13.7,0,21.8c2.6-1.5,3.8-2.3,5-3
		c11.1-6.5,24,0.7,24.2,13.4c0.1,6,0.1,12,0,18c0,1.5-0.4,3-0.6,4.5c-0.5,0-1.1,0-1.6,0.1c-0.3-1.4-0.8-2.8-0.8-4.3
		c-0.1-5.7,0-11.3,0-17c-0.1-8.5-5.2-14-13-13.8c-7.8,0.1-12.4,5.2-12.5,13.6c0,5.7,0.1,11.3-0.1,17c0,1.5-0.8,3.1-1.2,4.6
		C699.7,456,699,455.8,698.3,455.7z"/>
	<path d="M689,449.3c-1.7,5.2-7.9,7.6-15.3,6.6c-9.7-1.4-16.7-8.9-16.9-18.6c-0.3-8.9,6.6-17.4,15.3-19.1c7.6-1.5,14.8,0.9,17.1,6.6
		c-1.7-0.6-2.8-0.9-3.8-1.4c-8-4.2-16.6-2.9-21.7,3.3c-4.8,5.8-4.9,14.5-0.2,20.3c5.1,6.3,13.3,7.8,21.3,4
		C685.8,450.4,687.2,450,689,449.3z"/>
	<path d="M608.9,420c-2,0.4-3.9,0.8-6.6,1.4c0,9.3-0.2,18.7,0.2,28.1c0.1,1.8,2.8,3.5,4.3,5.3c-4.1,2.1-7.4,0.2-7.6-4.9
		c-0.2-7.5-0.1-14.9-0.1-22.4c0-2,0-3.9,0-6.1c-2.6-0.5-4.7-0.9-6.7-1.3c0.2-0.9,0.2-1.5,0.3-1.5c6.6,0,6.9-4.3,6.5-9.3
		c-0.2-2.6,0.2-5.3,0.3-8c0.7,0,1.4,0,2.1,0c0.2,2.3,0.4,4.6,0.5,6.9c0.2,4.8-2.1,11.1,7.8,10C609.6,418.8,609.2,419.4,608.9,420z"
		/>
	<path d="M925.3,303.7c-2.5,2.7-3.9,5.6-5.6,5.9c-3.4,0.5-4-2.7-4-5.5c0-2.8,0.4-5.9,4.1-5.4C921.4,298.9,922.8,301.3,925.3,303.7z"
		/>
	<path d="M594.7,452.4c-2.4,1.7-3.7,3.5-4.9,3.4c-1.3-0.1-3.3-2-3.3-3.1c0-1.2,1.8-3.2,3-3.4C590.7,449.1,592.2,450.8,594.7,452.4z"
		/>
</g>
</svg>
